<svg xmlns="http://www.w3.org/2000/svg" viewBox="0 0 290 514" width="290" height="514">
  <defs>
    <linearGradient id="hdr1" x1="0" y1="0" x2="1" y2="0">
      <stop offset="0%" stop-color="#1a3fd4"/>
      <stop offset="100%" stop-color="#2563eb"/>
    </linearGradient>
  </defs>
  <rect width="290" height="514" rx="20" fill="#f1f5f9"/>
  <rect width="290" height="56" rx="20" fill="url(#hdr1)"/>
  <rect y="36" width="290" height="20" fill="url(#hdr1)"/>
  <text x="16" y="24" font-family="sans-serif" font-size="13" font-weight="700" fill="white">TAI Safe</text>
  <text x="16" y="40" font-family="sans-serif" font-size="9" fill="rgba(255,255,255,0.75)">HOME</text>
  <rect x="220" y="14" width="56" height="26" rx="13" fill="#ef4444"/>
  <text x="248" y="31" font-family="sans-serif" font-size="9" font-weight="700" fill="white" text-anchor="middle">SOS</text>
  <rect x="10" y="64" width="270" height="48" rx="10" fill="#fff7ed" stroke="#fb923c" stroke-width="1.5"/>
  <text x="22" y="84" font-family="sans-serif" font-size="11" font-weight="700" fill="#c2410c">! Pending 2</text>
  <text x="22" y="100" font-family="sans-serif" font-size="9" fill="#9a3412">Auto-alert to safety manager</text>
  <rect x="10" y="120" width="82" height="68" rx="10" fill="white"/>
  <text x="51" y="148" font-family="sans-serif" font-size="22" font-weight="900" fill="#1a3fd4" text-anchor="middle">3</text>
  <text x="51" y="162" font-family="sans-serif" font-size="8.5" fill="#64748b" text-anchor="middle">Today</text>
  <text x="51" y="175" font-family="sans-serif" font-size="8" fill="#22c55e" text-anchor="middle">1 done</text>
  <rect x="104" y="120" width="82" height="68" rx="10" fill="white"/>
  <text x="145" y="148" font-family="sans-serif" font-size="22" font-weight="900" fill="#ef4444" text-anchor="middle">2</text>
  <text x="145" y="162" font-family="sans-serif" font-size="8.5" fill="#64748b" text-anchor="middle">Overdue</text>
  <text x="145" y="175" font-family="sans-serif" font-size="8" fill="#ef4444" text-anchor="middle">Action needed</text>
  <rect x="198" y="120" width="82" height="68" rx="10" fill="white"/>
  <text x="239" y="148" font-family="sans-serif" font-size="22" font-weight="900" fill="#7c3aed" text-anchor="middle">0</text>
  <text x="239" y="162" font-family="sans-serif" font-size="8.5" fill="#64748b" text-anchor="middle">TBM</text>
  <text x="239" y="175" font-family="sans-serif" font-size="8" fill="#94a3b8" text-anchor="middle">Not yet</text>
  <rect x="10" y="196" width="270" height="60" rx="10" fill="#1a3fd4"/>
  <text x="20" y="220" font-family="sans-serif" font-size="11" font-weight="700" fill="white">Start Today's Inspection</text>
  <text x="20" y="236" font-family="sans-serif" font-size="9" fill="rgba(255,255,255,0.7)">3 items / 1 completed</text>
  <text x="16" y="280" font-family="sans-serif" font-size="10" font-weight="700" fill="#94a3b8" letter-spacing="1">MENU</text>
  <rect x="10" y="290" width="270" height="40" rx="8" fill="white"/>
  <text x="20" y="315" font-family="sans-serif" font-size="11" font-weight="700" fill="#0f172a">Pre-work Check</text>
  <rect x="10" y="336" width="270" height="40" rx="8" fill="white"/>
  <text x="20" y="361" font-family="sans-serif" font-size="11" font-weight="700" fill="#0f172a">Report Issue</text>
  <rect x="10" y="382" width="270" height="40" rx="8" fill="white"/>
  <text x="20" y="407" font-family="sans-serif" font-size="11" font-weight="700" fill="#0f172a">Corrective Actions</text>
  <rect x="10" y="428" width="270" height="40" rx="8" fill="white"/>
  <text x="20" y="453" font-family="sans-serif" font-size="11" font-weight="700" fill="#0f172a">Work Permit</text>
  <rect y="476" width="290" height="38" fill="white"/>
  <line x1="0" y1="476" x2="290" y2="476" stroke="#e2e8f0" stroke-width="1"/>
  <text x="36" y="497" font-family="sans-serif" font-size="9" fill="#1a3fd4" text-anchor="middle" font-weight="700">Home</text>
  <text x="109" y="497" font-family="sans-serif" font-size="9" fill="#94a3b8" text-anchor="middle">Check</text>
  <text x="182" y="497" font-family="sans-serif" font-size="9" fill="#94a3b8" text-anchor="middle">Log</text>
  <text x="255" y="497" font-family="sans-serif" font-size="9" fill="#94a3b8" text-anchor="middle">My</text>
</svg>